<?xml version="1.0" standalone="no"?>
<!DOCTYPE svg PUBLIC "-//W3C//DTD SVG 20010904//EN"
 "http://www.w3.org/TR/2001/REC-SVG-20010904/DTD/svg10.dtd">
<svg version="1.0" xmlns="http://www.w3.org/2000/svg"
 width="142.000000pt" height="40.000000pt" viewBox="0 0 142.000000 40.000000"
 preserveAspectRatio="xMidYMid meet">

<g transform="translate(0.000000,40.000000) scale(0.100000,-0.100000)"
fill="#000000" stroke="none">
<path d="M0 200 l0 -200 705 0 705 0 0 200 0 200 -705 0 -705 0 0 -200z m1217
176 c-4 -11 -67 -16 -67 -6 0 13 10 17 40 17 18 0 29 -5 27 -11z m-999 -3
c-50 -3 -58 -7 -58 -23 0 -11 -4 -20 -10 -20 -5 0 -10 9 -10 20 0 18 -7 20
-55 20 l-55 0 0 -87 c0 -117 11 -153 63 -199 l42 -39 3 28 c2 15 9 27 16 27 9
0 12 -9 8 -25 -6 -35 8 -31 50 13 38 38 58 78 58 113 0 15 -7 19 -39 19 -25 0
-41 -5 -45 -15 -3 -9 -17 -15 -33 -14 -15 0 -23 3 -17 5 7 3 10 14 7 24 -3 12
0 20 6 20 7 0 9 5 6 10 -3 6 1 10 9 10 8 0 18 -4 21 -10 3 -5 29 -10 57 -10
l51 0 -5 -51 c-6 -58 -28 -92 -86 -133 -51 -36 -76 -31 -137 27 l-45 44 0 126
0 127 128 -2 c70 -1 101 -3 70 -5z m61 -87 c-5 -6 -9 7 -8 35 l1 44 8 -35 c5
-20 5 -39 -1 -44z m165 58 c9 -3 16 -13 16 -20 0 -12 -4 -12 -20 -4 -42 22
-82 -34 -48 -68 17 -17 38 -15 38 3 0 8 -4 15 -10 15 -5 0 -10 5 -10 10 0 6
12 10 26 10 23 0 25 -3 22 -32 -3 -29 -7 -33 -36 -36 -44 -4 -72 21 -72 64 0
48 46 76 94 58z m78 -46 c3 -45 6 -53 23 -53 17 0 20 8 23 53 2 37 7 52 18 52
18 0 20 -100 2 -118 -20 -20 -76 -15 -88 7 -16 31 -13 111 4 111 11 0 16 -15
18 -52z m197 -4 c11 -31 21 -60 21 -65 0 -15 -27 -10 -34 6 -3 8 -15 15 -26
15 -11 0 -23 -7 -26 -15 -4 -8 -13 -15 -21 -15 -10 0 -12 6 -7 23 18 58 45
107 57 107 8 0 24 -25 36 -56z m135 40 c19 -18 19 -20 6 -45 -8 -14 -6 -25 6
-44 15 -23 15 -25 0 -25 -9 0 -28 12 -41 28 l-24 27 -1 -28 c0 -22 -4 -28 -17
-25 -14 2 -19 15 -21 52 -2 27 -1 55 2 62 7 19 71 18 90 -2z m144 -7 c40 -41
0 -107 -64 -107 l-34 0 0 66 0 67 41 -6 c23 -3 48 -12 57 -20z m107 14 c3 -5
1 -12 -5 -16 -13 -8 -13 -85 0 -85 6 0 10 -4 10 -10 0 -12 -67 -13 -74 -1 -3
5 1 11 9 15 21 8 20 72 -1 80 -8 3 -12 10 -9 16 8 13 62 13 70 1z m121 -58
c20 -53 21 -63 9 -63 -9 0 -18 7 -21 15 -4 8 -16 15 -29 15 -13 0 -25 -7 -29
-15 -3 -8 -12 -15 -20 -15 -16 0 -13 10 23 103 17 44 41 30 67 -40z m144 47
c41 -41 10 -110 -49 -110 -34 0 -61 30 -61 67 0 30 34 63 65 63 14 0 34 -9 45
-20z m-380 -210 l0 -70 -45 0 -45 0 0 50 0 50 40 0 c33 0 40 3 40 20 0 11 2
20 5 20 3 0 5 -31 5 -70z m393 8 c6 -64 2 -82 -14 -73 -11 8 -12 135 0 135 4
0 11 -28 14 -62z m-153 6 c0 -8 -4 -14 -10 -14 -5 0 -10 -11 -10 -25 0 -14 5
-25 11 -25 5 0 7 -4 4 -10 -13 -22 -23 -8 -27 38 -3 26 -3 50 -1 54 6 12 33
-3 33 -18z m-201 -56 c1 -16 -3 -28 -9 -28 -6 0 -10 24 -9 53 1 41 3 47 9 27
4 -14 8 -37 9 -52z m102 40 c-5 -24 -13 -34 -29 -36 -30 -5 -28 -22 3 -22 20
0 25 -5 25 -25 0 -22 -4 -25 -39 -25 l-39 0 0 70 -1 70 43 0 43 0 -6 -32z m48
-41 c1 -40 -23 -29 -27 12 -2 18 0 40 4 49 6 14 8 13 14 -8 5 -14 8 -38 9 -53z
m162 20 l5 -48 -45 3 c-44 3 -46 4 -46 33 0 27 4 30 33 33 17 2 32 7 32 12 0
5 -15 11 -32 13 -27 4 -25 4 7 3 l40 -1 6 -48z"/>
<path d="M670 285 c0 -8 5 -15 10 -15 6 0 10 7 10 15 0 8 -4 15 -10 15 -5 0
-10 -7 -10 -15z"/>
<path d="M800 305 c0 -8 7 -15 15 -15 8 0 15 7 15 15 0 8 -7 15 -15 15 -8 0
-15 -7 -15 -15z"/>
<path d="M930 287 c0 -41 7 -49 32 -36 28 15 21 63 -9 67 -20 3 -23 -1 -23
-31z"/>
<path d="M1176 293 c-11 -11 -6 -23 9 -23 8 0 15 4 15 9 0 13 -16 22 -24 14z"/>
<path d="M1305 314 c-18 -18 -19 -28 -5 -55 14 -25 36 -24 50 1 22 41 -14 84
-45 54z"/>
<path d="M930 106 c0 -32 3 -36 26 -36 23 0 25 3 22 33 -2 24 -8 33 -25 35
-20 3 -23 -1 -23 -32z"/>
<path d="M1067 133 c-4 -3 -7 -15 -7 -25 0 -13 7 -18 25 -18 20 0 25 5 25 25
0 18 -5 25 -18 25 -10 0 -22 -3 -25 -7z"/>
<path d="M1070 35 c0 -9 9 -15 25 -15 16 0 25 6 25 15 0 9 -9 15 -25 15 -16 0
-25 -6 -25 -15z"/>
<path d="M1276 85 c8 -20 44 -20 44 0 0 9 -9 15 -25 15 -18 0 -23 -4 -19 -15z"/>
</g>
</svg>
